<svg width="121.44mm" height="115.5mm" version="1.1" viewBox="0 0 121.44 115.5" xmlns="http://www.w3.org/2000/svg">
 <defs>
  <clipPath id="clipPath3">
   <path d="m164 170.36-75.054 6.2e-4 -23.192 71.381 60.719 44.113 60.72-44.115z" fill="#b55628" stroke-linecap="round" stroke-linejoin="round" stroke-width="1.0001" style="paint-order:stroke fill markers"/>
  </clipPath>
  <clipPath id="clipPath4">
   <path d="m164 170.36-75.054 6.2e-4 -23.192 71.381 60.719 44.113 60.72-44.115z" fill="#b55628" stroke-linecap="round" stroke-linejoin="round" stroke-width="1.0001" style="paint-order:stroke fill markers"/>
  </clipPath>
 </defs>
 <g transform="translate(-33.379 -74.208)" stroke-linecap="round" stroke-linejoin="round">
  <path d="m94.098 189.7 60.719-44.116-23.194-71.381-75.052 1e-3 -23.193 71.38z" fill="#ffc00d" stroke-width="1.0001" style="paint-order:stroke fill markers"/>
  <path d="m94.098 181.04 52.479-38.129-20.046-61.694-64.866 8.62e-4 -20.046 61.693z" fill="#ffa600" stroke-width=".8644" style="paint-order:stroke fill markers"/>
  <g transform="rotate(144 125.9 168.68)" opacity=".07">
   <rect x="18.618" y="202.45" width="212.81" height="23.69" clip-path="url(#clipPath4)" fill="#fff" stroke-width=".77918" style="paint-order:stroke fill markers"/>
   <rect x="18.618" y="186.37" width="212.81" height="10.588" clip-path="url(#clipPath3)" fill="#fff" stroke-width=".5209" style="paint-order:stroke fill markers"/>
   <text transform="rotate(216)" x="-291.77023" y="-164.23462" fill="#eb680d" font-family="'Cartograph CF'" font-size="50.8px" stroke-width="1.0001" style="paint-order:stroke fill markers" xml:space="preserve"><tspan x="-291.77023" y="-164.23462" stroke-width="1.0001"/></text>
  </g>
  <g transform="translate(-3.3826 .092021)" font-family="'Cartograph CF'" font-size="63.5px" stroke-width="1.0001">
   <text x="78.34446" y="151.50529" fill="#000000" opacity=".25" style="font-variant-caps:normal;font-variant-east-asian:normal;font-variant-ligatures:normal;font-variant-numeric:normal;paint-order:stroke fill markers" xml:space="preserve"><tspan x="78.34446" y="151.50529" fill="#000000" stroke-width="1.0001">1</tspan></text>
   <text transform="translate(.11746 1.1046)" x="76.970222" y="148.4825" fill="#ffffff" style="font-variant-caps:normal;font-variant-east-asian:normal;font-variant-ligatures:normal;font-variant-numeric:normal;paint-order:stroke fill markers" xml:space="preserve"><tspan x="76.970222" y="148.4825" fill="#ffffff" stroke-width="1.0001">1</tspan></text>
  </g>
 </g>
</svg>
